<svg aria-hidden="true" style="position: absolute; width: 0; height: 0; overflow: hidden;" version="1.1" xmlns="http://www.w3.org/2000/svg" xmlns:xlink="http://www.w3.org/1999/xlink">
<defs>
<symbol id="icon-github" viewBox="0 0 32 32">
<path d="M16 0c8.837 0 16 7.344 16 16.405 0 7.246-4.579 13.394-10.933 15.565-0.811 0.162-1.099-0.35-1.099-0.787 0-0.541 0.019-2.307 0.019-4.502 0-1.53-0.512-2.528-1.086-3.037 3.563-0.406 7.307-1.794 7.307-8.094 0-1.792-0.621-3.254-1.648-4.403 0.166-0.414 0.715-2.083-0.157-4.342 0 0-1.341-0.44-4.395 1.682-1.278-0.363-2.648-0.546-4.008-0.552-1.36 0.006-2.728 0.189-4.005 0.552-3.058-2.122-4.402-1.682-4.402-1.682-0.869 2.259-0.32 3.928-0.155 4.342-1.022 1.149-1.648 2.611-1.648 4.403 0 6.285 3.736 7.693 7.29 8.107-0.458 0.41-0.872 1.133-1.016 2.194-0.912 0.419-3.229 1.144-4.656-1.363 0 0-0.846-1.576-2.453-1.691 0 0-1.56-0.021-0.109 0.997 0 0 1.048 0.504 1.776 2.4 0 0 0.939 2.928 5.39 1.936 0.008 1.371 0.022 2.664 0.022 3.054 0 0.434-0.294 0.941-1.093 0.789-6.358-2.168-10.942-8.318-10.942-15.566 0-9.061 7.165-16.405 16-16.405z"></path>
</symbol>
<symbol id="icon-man" viewBox="0 0 32 32">
<path d="M13.333 29.333v-9.333h-2.667v-8q0-1.1 0.783-1.883t1.883-0.783h5.333q1.1 0 1.883 0.783t0.783 1.883v8h-2.667v9.333h-5.333zM16 8q-1.1 0-1.883-0.783t-0.783-1.883 0.783-1.883 1.883-0.783 1.883 0.783 0.783 1.883-0.783 1.883-1.883 0.783z"></path>
</symbol>
<symbol id="icon-mail" viewBox="0 0 32 32">
<path d="M5.333 26.667q-1.1 0-1.883-0.783t-0.783-1.883v-16q0-1.1 0.783-1.883t1.883-0.783h21.333q1.1 0 1.883 0.783t0.783 1.883v16q0 1.1-0.783 1.883t-1.883 0.783h-21.333zM16 17.333l-10.667-6.667v13.333h21.333v-13.333l-10.667 6.667zM16 14.667l10.667-6.667h-21.333l10.667 6.667zM5.333 10.667v-0z"></path>
</symbol>
<symbol id="icon-work" viewBox="0 0 32 32">
<path d="M5.333 28q-1.1 0-1.883-0.783t-0.783-1.883v-14.667q0-1.1 0.783-1.883t1.883-0.783h5.333v-2.667q0-1.1 0.783-1.883t1.883-0.783h5.333q1.1 0 1.883 0.783t0.783 1.883v2.667h5.333q1.1 0 1.883 0.783t0.783 1.883v14.667q0 1.1-0.783 1.883t-1.883 0.783h-21.333zM5.333 25.333h21.333v-14.667h-21.333v14.667zM13.333 8h5.333v-2.667h-5.333v2.667zM5.333 25.333v0z"></path>
</symbol>
<symbol id="icon-person" viewBox="0 0 32 32">
<path d="M7.333 16.533l-5.2-5.2 5.2-5.2 5.2 5.2-5.2 5.2zM12 29.333v-6.667q-2.033-0.167-4.033-0.483t-3.967-0.85l0.667-2.667q2.8 0.767 5.617 1.050t5.717 0.283 5.717-0.283 5.617-1.050l0.667 2.667q-1.967 0.533-3.967 0.85t-4.033 0.483v6.667h-8zM7.333 12.8l1.467-1.467-1.467-1.467-1.467 1.467 1.467 1.467zM16 9.333q-1.667 0-2.833-1.167t-1.167-2.833 1.167-2.833 2.833-1.167 2.833 1.167 1.167 2.833-1.167 2.833-2.833 1.167zM16 18.667q-1.1 0-1.883-0.783t-0.783-1.883 0.783-1.883 1.883-0.783 1.883 0.783 0.783 1.883-0.783 1.883-1.883 0.783zM16 6.667q0.567 0 0.95-0.383t0.383-0.95-0.383-0.95-0.95-0.383-0.95 0.383-0.383 0.95 0.383 0.95 0.95 0.383zM22.733 16l-2.267-4 2.267-4h4.533l2.267 4-2.267 4h-4.533zM24.267 13.333h1.467l0.733-1.333-0.733-1.333h-1.467l-0.733 1.333 0.733 1.333z"></path>
</symbol>
<symbol id="icon-studio" viewBox="0 0 226 32">
<path fill="#2196f3" style="fill: var(--color1, #2196f3)" d="M12.894 1.698h5.133l3.234 9.499 3.234-9.499h5.174l-4.891 13.056 3.638 9.176 8.125-22.312h6.063l-11.682 28.699h-4.689l-4.972-12.045-4.972 12.045h-4.689l-11.601-28.699h5.982l8.165 22.312 3.557-9.176-4.81-13.056zM53.448 30.72c-1.698 0-3.234-0.283-4.608-0.849-1.374-0.593-2.547-1.388-3.517-2.385s-1.725-2.156-2.264-3.476c-0.512-1.32-0.768-2.708-0.768-4.163 0-1.509 0.256-2.924 0.768-4.244 0.512-1.347 1.253-2.52 2.223-3.517 0.97-1.024 2.142-1.832 3.517-2.425 1.401-0.593 2.964-0.889 4.689-0.889s3.261 0.296 4.608 0.889c1.374 0.593 2.533 1.388 3.476 2.385 0.97 0.997 1.698 2.156 2.183 3.476 0.512 1.32 0.768 2.695 0.768 4.123 0 0.35-0.013 0.687-0.040 1.011 0 0.323-0.027 0.593-0.081 0.808h-16.371c0.081 0.835 0.283 1.576 0.606 2.223s0.741 1.199 1.253 1.657c0.512 0.458 1.091 0.808 1.738 1.051s1.32 0.364 2.021 0.364c1.078 0 2.088-0.256 3.032-0.768 0.97-0.539 1.63-1.24 1.981-2.102l4.649 1.293c-0.781 1.617-2.035 2.951-3.759 4.002-1.698 1.024-3.732 1.536-6.104 1.536zM58.945 17.947c-0.135-1.59-0.727-2.856-1.779-3.8-1.024-0.97-2.277-1.455-3.759-1.455-0.728 0-1.415 0.135-2.061 0.404-0.62 0.243-1.172 0.593-1.657 1.051s-0.889 1.011-1.213 1.657c-0.296 0.647-0.472 1.361-0.525 2.142h10.995zM81.081 30.72c-1.617 0-3.059-0.364-4.325-1.091s-2.264-1.725-2.991-2.991v3.678h-4.729v-29.507h5.416v12.045c0.755-1.293 1.738-2.291 2.951-2.991 1.24-0.728 2.681-1.091 4.325-1.091 1.374 0 2.627 0.296 3.759 0.889s2.102 1.388 2.91 2.385c0.835 0.997 1.469 2.169 1.9 3.517 0.458 1.347 0.687 2.762 0.687 4.244 0 1.536-0.256 2.964-0.768 4.285-0.485 1.32-1.172 2.479-2.061 3.476-0.889 0.97-1.94 1.738-3.153 2.304s-2.52 0.849-3.921 0.849zM79.586 26.112c0.862 0 1.657-0.162 2.385-0.485 0.728-0.35 1.347-0.808 1.859-1.374s0.903-1.226 1.172-1.981c0.296-0.755 0.445-1.563 0.445-2.425s-0.135-1.684-0.404-2.466c-0.269-0.781-0.66-1.469-1.172-2.061-0.485-0.593-1.064-1.064-1.738-1.415s-1.415-0.525-2.223-0.525c-1.213 0-2.304 0.404-3.274 1.213-0.943 0.781-1.671 1.752-2.183 2.91v5.053c0.189 0.539 0.458 1.024 0.808 1.455 0.377 0.431 0.795 0.808 1.253 1.132 0.458 0.296 0.957 0.539 1.496 0.728 0.539 0.162 1.064 0.243 1.576 0.243z"></path>
<path fill="#212121" style="fill: var(--color2, #212121)" d="M113.49 9.135c-0.189-0.189-0.539-0.445-1.051-0.768-0.485-0.323-1.091-0.633-1.819-0.93-0.701-0.323-1.469-0.593-2.304-0.808s-1.684-0.323-2.547-0.323c-1.536 0-2.681 0.283-3.436 0.849s-1.132 1.361-1.132 2.385c0 0.593 0.135 1.091 0.404 1.496 0.296 0.377 0.714 0.714 1.253 1.011s1.213 0.566 2.021 0.808c0.835 0.243 1.792 0.499 2.87 0.768 1.401 0.377 2.668 0.781 3.8 1.213 1.159 0.431 2.129 0.97 2.91 1.617 0.808 0.647 1.428 1.428 1.859 2.344 0.431 0.889 0.647 1.994 0.647 3.315 0 1.536-0.296 2.856-0.889 3.961-0.566 1.078-1.347 1.954-2.344 2.627-0.97 0.674-2.102 1.172-3.395 1.496-1.267 0.296-2.6 0.445-4.002 0.445-2.156 0-4.285-0.323-6.387-0.97s-3.988-1.563-5.659-2.749l2.466-4.81c0.243 0.243 0.674 0.566 1.293 0.97 0.647 0.377 1.401 0.768 2.264 1.172 0.862 0.377 1.819 0.701 2.87 0.97s2.129 0.404 3.234 0.404c3.072 0 4.608-0.984 4.608-2.951 0-0.62-0.175-1.145-0.525-1.576s-0.849-0.808-1.496-1.132c-0.647-0.323-1.428-0.62-2.344-0.889s-1.94-0.566-3.072-0.889c-1.374-0.377-2.573-0.781-3.597-1.213-0.997-0.458-1.832-0.984-2.506-1.576-0.674-0.62-1.186-1.32-1.536-2.102-0.323-0.808-0.485-1.765-0.485-2.87 0-1.455 0.269-2.749 0.808-3.88s1.28-2.075 2.223-2.829c0.97-0.755 2.088-1.32 3.355-1.698 1.267-0.404 2.627-0.606 4.083-0.606 2.021 0 3.88 0.323 5.578 0.97 1.698 0.62 3.18 1.361 4.446 2.223l-2.466 4.527zM134.324 29.224c-0.728 0.323-1.617 0.647-2.668 0.97s-2.156 0.485-3.315 0.485c-0.755 0-1.469-0.094-2.142-0.283-0.647-0.189-1.226-0.485-1.738-0.889-0.485-0.431-0.876-0.97-1.172-1.617-0.296-0.674-0.445-1.482-0.445-2.425v-12.167h-2.789v-4.163h2.789v-6.872h5.416v6.872h4.446v4.163h-4.446v10.348c0 0.755 0.189 1.293 0.566 1.617 0.404 0.296 0.889 0.445 1.455 0.445s1.118-0.094 1.657-0.283c0.539-0.189 0.97-0.35 1.293-0.485l1.091 4.285zM144.825 30.72c-2.183 0-3.84-0.701-4.972-2.102s-1.698-3.476-1.698-6.225v-13.258h5.416v12.086c0 3.261 1.172 4.891 3.517 4.891 1.051 0 2.061-0.31 3.032-0.93 0.997-0.647 1.805-1.617 2.425-2.91v-13.137h5.416v14.956c0 0.566 0.094 0.97 0.283 1.213 0.216 0.243 0.552 0.377 1.011 0.404v4.608c-0.539 0.108-0.997 0.175-1.374 0.202-0.35 0.027-0.674 0.040-0.97 0.040-0.97 0-1.765-0.216-2.385-0.647-0.593-0.458-0.943-1.078-1.051-1.859l-0.121-1.698c-0.943 1.455-2.156 2.547-3.638 3.274s-3.112 1.091-4.891 1.091zM173.329 30.72c-1.455 0-2.803-0.283-4.042-0.849s-2.304-1.347-3.193-2.344-1.59-2.156-2.102-3.476c-0.485-1.347-0.728-2.789-0.728-4.325s0.229-2.964 0.687-4.285c0.485-1.32 1.145-2.479 1.981-3.476s1.832-1.779 2.991-2.344c1.159-0.566 2.425-0.849 3.8-0.849 1.563 0 2.964 0.377 4.204 1.132 1.267 0.755 2.25 1.738 2.951 2.951v-12.045h5.416v23.283c0 0.566 0.094 0.97 0.283 1.213s0.512 0.377 0.97 0.404v4.608c-0.943 0.189-1.711 0.283-2.304 0.283-0.97 0-1.765-0.243-2.385-0.728s-0.97-1.118-1.051-1.9l-0.121-1.334c-0.781 1.347-1.846 2.371-3.193 3.072-1.32 0.674-2.708 1.011-4.163 1.011zM174.744 26.112c0.512 0 1.037-0.081 1.576-0.243 0.539-0.189 1.037-0.445 1.496-0.768s0.862-0.701 1.213-1.132c0.377-0.431 0.66-0.903 0.849-1.415v-5.053c-0.216-0.593-0.525-1.132-0.93-1.617-0.377-0.512-0.822-0.943-1.334-1.293-0.485-0.377-1.011-0.674-1.576-0.889-0.539-0.216-1.078-0.323-1.617-0.323-0.808 0-1.563 0.175-2.264 0.525-0.674 0.35-1.253 0.835-1.738 1.455-0.485 0.593-0.862 1.28-1.132 2.061s-0.404 1.59-0.404 2.425c0 0.889 0.148 1.711 0.445 2.466s0.701 1.415 1.213 1.981c0.512 0.566 1.118 1.011 1.819 1.334 0.728 0.323 1.523 0.485 2.385 0.485zM191.823 30.316v-21.181h5.416v21.181h-5.416zM191.823 6.184v-5.376h5.416v5.376h-5.416zM213.12 30.72c-1.725 0-3.274-0.296-4.648-0.889s-2.547-1.388-3.517-2.385c-0.943-1.024-1.671-2.196-2.183-3.517s-0.768-2.708-0.768-4.163c0-1.482 0.256-2.883 0.768-4.204s1.24-2.479 2.183-3.476c0.97-1.024 2.142-1.832 3.517-2.425s2.924-0.889 4.648-0.889c1.725 0 3.261 0.296 4.608 0.889 1.374 0.593 2.533 1.401 3.476 2.425 0.97 0.997 1.711 2.156 2.223 3.476s0.768 2.722 0.768 4.204c0 1.455-0.256 2.843-0.768 4.163s-1.24 2.493-2.183 3.517c-0.943 0.997-2.102 1.792-3.476 2.385s-2.924 0.889-4.648 0.889zM207.582 19.766c0 0.943 0.135 1.805 0.404 2.587 0.296 0.755 0.687 1.415 1.172 1.981 0.512 0.566 1.105 1.011 1.779 1.334 0.674 0.296 1.401 0.445 2.183 0.445s1.509-0.148 2.183-0.445c0.674-0.323 1.253-0.768 1.738-1.334 0.512-0.566 0.903-1.24 1.172-2.021 0.296-0.781 0.445-1.644 0.445-2.587 0-0.916-0.148-1.765-0.445-2.547-0.269-0.781-0.66-1.455-1.172-2.021-0.485-0.566-1.064-0.997-1.738-1.293-0.674-0.323-1.401-0.485-2.183-0.485s-1.509 0.162-2.183 0.485c-0.674 0.323-1.267 0.768-1.779 1.334-0.485 0.566-0.876 1.24-1.172 2.021-0.269 0.781-0.404 1.63-0.404 2.547z"></path>
</symbol>
<symbol id="icon-travel" viewBox="0 0 196 32">
<path d="M41.235 8.58v18.288h-3.445v-18.288h-5.631v-2.927h14.677v2.927h-5.602z"></path>
<path d="M49.92 15.318c0.338-0.908 0.782-1.58 1.332-2.014 0.56-0.435 1.25-0.652 2.070-0.652 0.444 0 0.878 0.053 1.303 0.159 0.434 0.106 0.859 0.261 1.274 0.464l-1.129 2.666c-0.27-0.193-0.565-0.333-0.883-0.42-0.309-0.097-0.656-0.145-1.042-0.145-1.042 0-1.79 0.42-2.244 1.261-0.453 0.831-0.68 2.232-0.68 4.203v6.028h-3.141v-13.767h3.141v2.217z"></path>
<path d="M70.604 26.868h-3.141v-1.782c-0.56 0.792-1.216 1.382-1.969 1.768-0.743 0.386-1.597 0.58-2.562 0.58-1.94 0-3.469-0.662-4.588-1.985-1.11-1.333-1.665-3.154-1.665-5.463 0-2.193 0.569-3.961 1.708-5.304 1.139-1.353 2.625-2.029 4.458-2.029 1.119 0 2.075 0.237 2.866 0.71 0.801 0.464 1.385 1.135 1.751 2.014v-2.246h3.141v13.738zM67.55 19.956c0-1.42-0.333-2.526-0.999-3.319-0.656-0.792-1.578-1.188-2.765-1.188s-2.123 0.411-2.808 1.232c-0.676 0.812-1.013 1.942-1.013 3.391 0 1.459 0.328 2.584 0.984 3.377s1.583 1.188 2.779 1.188c1.129 0 2.046-0.43 2.75-1.29 0.714-0.86 1.071-1.99 1.071-3.391z"></path>
<path d="M79.766 27.694l-7.194-14.564h3.431l2.996 6.912c0.097 0.213 0.212 0.531 0.348 0.956s0.275 0.932 0.419 1.522c0.097-0.415 0.208-0.826 0.333-1.232 0.135-0.415 0.294-0.831 0.478-1.246l2.981-6.912h3.416l-7.209 14.564z"></path>
<path d="M102.173 20.463h-10.972c0.078 1.285 0.459 2.29 1.144 3.014 0.685 0.715 1.597 1.072 2.736 1.072 1.013 0 1.857-0.212 2.533-0.638s1.264-1.111 1.766-2.058l2.648 1.478c-0.771 1.381-1.727 2.41-2.866 3.087s-2.475 1.014-4.010 1.014c-2.2 0-3.952-0.671-5.254-2.014s-1.954-3.135-1.954-5.376c0-2.154 0.671-3.922 2.012-5.304 1.351-1.391 3.083-2.087 5.196-2.087 2.21 0 3.933 0.633 5.168 1.898s1.853 3.038 1.853 5.318v0.594zM98.917 18.347c-0.126-0.985-0.502-1.734-1.13-2.246-0.627-0.522-1.486-0.783-2.576-0.783-1.032 0-1.862 0.251-2.489 0.754s-1.067 1.261-1.317 2.275h7.513z"></path>
<path d="M105.604 26.868v-22.462h3.141v22.462h-3.141z"></path>
<path d="M113.391 26.868v-22.462h3.141v22.462h-3.141z"></path>
<path d="M120.758 7.189c0-0.531 0.193-0.99 0.579-1.377 0.396-0.386 0.863-0.58 1.404-0.58 0.56 0 1.023 0.188 1.39 0.565 0.376 0.367 0.564 0.831 0.564 1.391s-0.188 1.034-0.564 1.42c-0.376 0.377-0.84 0.565-1.39 0.565-0.541 0-1.008-0.193-1.404-0.58-0.386-0.396-0.579-0.865-0.579-1.406zM121.179 26.868v-13.738h3.141v13.738h-3.141z"></path>
<path d="M141.733 26.868h-3.141v-1.782c-0.56 0.792-1.216 1.382-1.968 1.768-0.743 0.386-1.597 0.58-2.562 0.58-1.94 0-3.469-0.662-4.588-1.985-1.11-1.333-1.665-3.154-1.665-5.463 0-2.193 0.569-3.961 1.708-5.304 1.138-1.353 2.625-2.029 4.458-2.029 1.12 0 2.075 0.237 2.866 0.71 0.801 0.464 1.385 1.135 1.751 2.014v-2.246h3.141v13.738zM138.678 19.956c0-1.42-0.333-2.526-0.999-3.319-0.656-0.792-1.578-1.188-2.765-1.188s-2.123 0.411-2.808 1.232c-0.675 0.812-1.013 1.942-1.013 3.391 0 1.459 0.328 2.584 0.984 3.377s1.583 1.188 2.779 1.188c1.13 0 2.046-0.43 2.751-1.29 0.714-0.86 1.071-1.99 1.071-3.391z"></path>
<path d="M146.075 26.868v-13.738h2.953v2.246c0.628-0.947 1.366-1.637 2.215-2.072s1.882-0.652 3.098-0.652c1.023 0 1.891 0.164 2.605 0.493 0.724 0.319 1.289 0.797 1.694 1.435 0.241 0.377 0.415 0.816 0.521 1.319s0.159 1.382 0.159 2.637v8.333h-3.17v-7.057c0-1.807-0.222-3.005-0.666-3.594-0.434-0.599-1.211-0.898-2.331-0.898-0.733 0-1.389 0.135-1.968 0.406-0.569 0.271-1.018 0.652-1.346 1.145-0.232 0.328-0.396 0.754-0.492 1.275-0.086 0.512-0.13 1.333-0.13 2.464v6.26h-3.141z"></path>
<path d="M9.834 22.844l4.028 3.971 4.028-3.971-4.028-3.971-4.028 3.971zM13.862 3.571v0.006c-1.153 0-2.306 0.434-3.184 1.3l-0.004-0.004c-0.876 0.866-1.317 2.005-1.317 3.143 0 1.141 0.438 2.277 1.312 3.139h0.006l3.186 3.139 3.184-3.139h0.006c0.88-0.868 1.32-2.005 1.32-3.139h-0.006c0-1.137-0.44-2.273-1.319-3.139-0.884-0.87-2.037-1.306-3.186-1.306zM20.212 25.133l-6.35 6.26-6.35-6.26-5.189 5.116-2.322-2.289 11.542-11.376-3.184-3.139 0.004-0.004c-1.524-1.501-2.286-3.466-2.286-5.424 0-1.961 0.761-3.923 2.282-5.422v-0.004c1.52-1.499 3.513-2.249 5.504-2.249v0.006c1.995 0 3.99 0.748 5.506 2.243 1.52 1.499 2.28 3.464 2.28 5.428h-0.006c0 1.963-0.759 3.925-2.278 5.424l0.004 0.004-3.184 3.137 11.54 11.376-2.322 2.289-5.189-5.116z"></path>
</symbol>
</defs>
</svg>
